# File created by Blade
# Date/Time:  Wed Apr 08 17:04:22 2015
# Frame Rate: 120.000 fps
#------------------------------------------------------
:FULLY-SPECIFIED
:DEGREES
1752
root 3.937741 36.250040 3.275391 -99.541650 -87.458001 123.842812
Spine -23.990256 0.828983 -5.167240
Head 19.894875 12.001151 6.214738
LeftShoulder -7.545544 12.311609 29.977024
LeftArm 9.101909 -33.083966 -30.318941
LeftForeArm 14.130690 -0.000000 12.426934
LeftHand -12.833100 -0.000000 -10.294446
LeftHandThumb1 -26.253704 0.000000 33.147579
RightShoulder -22.946392 -42.567533 -15.460538
RightArm 46.673440 44.552605 45.748562
RightForeArm 10.585946 -0.000000 7.341695
RightHand 1.367481 -0.000000 11.291651
RightHandThumb1 -24.326973 -0.000000 -32.862282
LeftUpLeg -26.324122 9.840110 -1.324697
LeftLeg 13.488463 -0.000000 -0.000000
LeftFoot -11.578244 5.357100 -15.519639
LeftToeBase 6.856322 -0.000000 -0.000000
RightUpLeg -25.343569 -8.196635 -7.557331
RightLeg 10.286003 -0.000000 -0.000000
RightFoot -10.846572 -1.652076 19.993711
RightToeBase 13.743813 -0.000000 -0.000000
1753
root 3.928927 36.249580 3.273885 -101.544755 -87.413689 125.837925
Spine -23.991178 0.848103 -5.132687
Head 19.780562 12.075050 6.106022
LeftShoulder -7.519516 12.206506 30.089724
LeftArm 8.928554 -33.315681 -30.163408
LeftForeArm 14.086010 -0.000000 11.296470
LeftHand -12.755921 -0.000000 -10.500880
LeftHandThumb1 -26.253704 0.000000 33.147579
RightShoulder -22.799820 -42.503759 -15.640898
RightArm 46.707249 44.779686 45.704105
RightForeArm 10.080204 -0.000000 6.911086
RightHand 1.272440 -0.000000 11.612878
RightHandThumb1 -24.326973 -0.000000 -32.862282
LeftUpLeg -26.276986 9.865661 -1.320549
LeftLeg 13.475163 -0.000000 -0.000000
LeftFoot -11.626022 5.431892 -15.532716
LeftToeBase 6.851149 -0.000000 -0.000000
RightUpLeg -25.350204 -8.131331 -7.564876
RightLeg 10.294366 -0.000000 -0.000000
RightFoot -10.843146 -1.639111 19.955522
RightToeBase 13.737187 -0.000000 -0.000000
1754
root 3.920369 36.248866 3.271978 -103.213230 -87.377326 127.491140
Spine -23.986092 0.851414 -5.097819
Head 19.670213 12.137712 6.018660
LeftShoulder -7.486850 12.103326 30.175598
LeftArm 8.770293 -33.596846 -29.967868
LeftForeArm 14.641453 -0.000000 10.026505
LeftHand -12.433375 -0.000000 -10.789536
LeftHandThumb1 -26.253704 0.000000 33.147579
RightShoulder -22.635078 -42.435149 -15.822271
RightArm 46.705586 44.948289 45.595018
RightForeArm 9.708112 -0.000000 6.394553
RightHand 1.220190 -0.000000 11.850006
RightHandThumb1 -24.326973 -0.000000 -32.862282
LeftUpLeg -26.224550 9.869780 -1.302886
LeftLeg 13.461903 -0.000000 -0.000000
LeftFoot -11.655217 5.508250 -15.539061
LeftToeBase 6.777870 -0.000000 -0.000000
RightUpLeg -25.345693 -8.067519 -7.572806
RightLeg 10.308376 -0.000000 -0.000000
RightFoot -10.850507 -1.634554 19.929232
RightToeBase 13.746394 -0.000000 -0.000000
1755
root 3.912543 36.248043 3.270236 -104.888428 -87.327018 129.153200
Spine -23.981390 0.885482 -5.080291
Head 19.552513 12.174408 5.923263
LeftShoulder -7.452634 12.034596 30.274959
LeftArm 8.694150 -33.717682 -29.855338
LeftForeArm 14.850889 -0.000000 8.905955
LeftHand -12.766092 -0.000000 -10.610883
LeftHandThumb1 -26.253704 0.000000 33.147579
RightShoulder -22.502275 -42.377449 -16.008638
RightArm 46.661507 45.001117 45.397421
RightForeArm 9.493581 -0.000000 5.808143
RightHand 1.195178 -0.000000 12.121723
RightHandThumb1 -24.326973 -0.000000 -32.862282
LeftUpLeg -26.182095 9.882050 -1.301411
LeftLeg 13.461224 -0.000000 -0.000000
LeftFoot -11.688164 5.584864 -15.547775
LeftToeBase 6.804752 -0.000000 -0.000000
RightUpLeg -25.350408 -8.019998 -7.585302
RightLeg 10.326940 -0.000000 -0.000000
RightFoot -10.848140 -1.593438 19.909391
RightToeBase 13.728795 -0.000000 -0.000000
1756
root 3.903703 36.247536 3.268643 -106.253158 -87.285626 130.508290
Spine -23.981647 0.896028 -5.054367
Head 19.433352 12.216572 5.834755
LeftShoulder -7.430789 11.932979 30.346077
LeftArm 8.591179 -33.862633 -29.701235
LeftForeArm 15.621716 -0.000000 7.772729
LeftHand -12.619325 0.000000 -10.753787
LeftHandThumb1 -26.253704 0.000000 33.147579
RightShoulder -22.360325 -42.330809 -16.177122
RightArm 46.641085 45.053471 45.207541
RightForeArm 9.268993 -0.000000 5.209520
RightHand 1.155309 -0.000000 12.294197
RightHandThumb1 -24.326973 -0.000000 -32.862282
LeftUpLeg -26.140012 9.865542 -1.284681
LeftLeg 13.455239 -0.000000 -0.000000
LeftFoot -11.723057 5.671595 -15.569055
LeftToeBase 6.784249 -0.000000 -0.000000
RightUpLeg -25.348604 -7.989525 -7.591867
RightLeg 10.329966 -0.000000 -0.000000
RightFoot -10.831334 -1.551845 19.904771
RightToeBase 13.726643 -0.000000 -0.000000
1757
root 3.896461 36.247185 3.267587 -107.247144 -87.250081 131.496029
Spine -23.979742 0.899510 -5.028830
Head 19.292236 12.229488 5.735818
LeftShoulder -7.376354 11.866561 30.416628
LeftArm 8.439775 -34.064364 -29.564030
LeftForeArm 16.363803 -0.000000 6.795815
LeftHand -12.475271 -0.000000 -10.987494
LeftHandThumb1 -26.253704 0.000000 33.147579
RightShoulder -22.228996 -42.283495 -16.336578
RightArm 46.597968 45.073120 44.978352
RightForeArm 9.128495 -0.000000 4.623467
RightHand 0.851391 -0.000000 12.488596
RightHandThumb1 -24.326973 -0.000000 -32.862282
LeftUpLeg -26.109306 9.849192 -1.278428
LeftLeg 13.451605 -0.000000 -0.000000
LeftFoot -11.747198 5.759525 -15.556189
LeftToeBase 6.812929 -0.000000 -0.000000
RightUpLeg -25.347069 -7.970967 -7.598405
RightLeg 10.333774 -0.000000 -0.000000
RightFoot -10.824326 -1.510985 19.900997
RightToeBase 13.738781 -0.000000 -0.000000
